{"title":"The.Silence.of.the.Lambs.1991.BRRip.480p.x264.AAC-VYTO [P2PDL]","uid":12201873,"size":426587777,"categoryP":"video","categoryS":"movies","magnet":"?xt=urn:btih:3bbb1de8a1fd7b7879fa9e1c6b6dd89b16dc2251&amp;dn=The.Silence.of.the.Lambs.1991.BRRip.480p.x264.AAC-VYTO+%5BP2PDL%5D&amp;tr=udp%3A%2F%2Ftracker.openbittorrent.com%3A80&amp;tr=udp%3A%2F%2Fopen.demonii.com%3A1337&amp;tr=udp%3A%2F%2Ftracker.coppersurfer.tk%3A6969&amp;tr=udp%3A%2F%2Fexodus.desync.com%3A6969","seeders":4,"leechers":7,"uploader":"ValidusVyto","files":7,"time":1438849924,"description":"____    ____ ____    ____ .___________.  ______   \n     /   /      /   / |           | /  __    \n    /   /      /   /  `---|  |----`|  |  |  | \n        /     _    _/       |  |     |  |  |  | \n       /        |  |         |  |     |  `--'  | \n    __/         |__|         |__|      ______/  \n                                                  \nPresenting Small Encodes with quality for years!\n                                                                                                   \n                                                                                                   \n\nThe.Silence.of.the.Lambs.1991.BRRip.480p.x264.AAC-VYTO\n\n\nGenre: Crime, Drama, Thriller &lt;a href=&quot;\nhttp://www.imdb.com/title/tt0102926/&quot; rel=&quot;nofollow&quot; target=&quot;_NEW&quot;&gt;\nhttp://www.imdb.com/title/tt0102926/&lt;/a&gt;\n\n\nGeneral\nFormat                         : MPEG-4\nFile size                      : 402 MiB\nDuration                       : 1h 58mn\nOverall bit rate               : 474 Kbps\n\nVideo\nFormat                         : AVC\nBit rate                       : 439 Kbps\nMaximum bit rate               : 2 836 Kbps\nWidth                          : 720 pixels\nHeight                         : 384 pixels\nDisplay aspect ratio           : 1.85:1\nFrame rate mode                : Constant\nFrame rate                     : 23.976 fps\nBit depth                      : 8 bits\nStream size                    : 372 MiB (93%)\nWriting library                : x264 core 146 r2538 121396c\n\nAudio\nFormat                         : AAC\nBit rate mode                  : Variable\nBit rate                       : 32.0 Kbps\nChannel(s)                     : 2 channels \nChannel positions              : Front: L R\nSampling rate                  : 48.0 KHz \nStream size                    : 27.1 MiB (7%)\n\nSubtitle                       : Yes (English)\nSource                     \t   : 720p.BluRay.x264-WaLMaRT\t\t\t\n\n\nScreenshots:\n &lt;a href=&quot;\nhttp://ititli.com/6N&quot; rel=&quot;nofollow&quot; target=&quot;_NEW&quot;&gt;\nhttp://ititli.com/6N&lt;/a&gt; &lt;a href=&quot;\nhttp://ititli.com/6P&quot; rel=&quot;nofollow&quot; target=&quot;_NEW&quot;&gt;\nhttp://ititli.com/6P&lt;/a&gt; &lt;a href=&quot;\nhttp://ititli.com/6f&quot; rel=&quot;nofollow&quot; target=&quot;_NEW&quot;&gt;\nhttp://ititli.com/6f&lt;/a&gt; &lt;a href=&quot;\nhttp://ititli.com/6u&quot; rel=&quot;nofollow&quot; target=&quot;_NEW&quot;&gt;\nhttp://ititli.com/6u&lt;/a&gt; &lt;a href=&quot;\nhttp://ititli.com/6v&quot; rel=&quot;nofollow&quot; target=&quot;_NEW&quot;&gt;\nhttp://ititli.com/6v&lt;/a&gt; &lt;a href=&quot;\nhttp://ititli.com/6R&quot; rel=&quot;nofollow&quot; target=&quot;_NEW&quot;&gt;\nhttp://ititli.com/6R&lt;/a&gt; &lt;a href=&quot;\nhttp://ititli.com/6y&quot; rel=&quot;nofollow&quot; target=&quot;_NEW&quot;&gt;\nhttp://ititli.com/6y&lt;/a&gt; &lt;a href=&quot;\nhttp://ititli.com/63&quot; rel=&quot;nofollow&quot; target=&quot;_NEW&quot;&gt;\nhttp://ititli.com/63&lt;/a&gt; &lt;a href=&quot;\nhttp://ititli.com/6E&quot; rel=&quot;nofollow&quot; target=&quot;_NEW&quot;&gt;\nhttp://ititli.com/6E&lt;/a&gt; &lt;a href=&quot;\nhttp://ititli.com/6Q&quot; rel=&quot;nofollow&quot; target=&quot;_NEW&quot;&gt;\nhttp://ititli.com/6Q&lt;/a&gt; &lt;a href=&quot;\nhttp://ititli.com/6S&quot; rel=&quot;nofollow&quot; target=&quot;_NEW&quot;&gt;\nhttp://ititli.com/6S&lt;/a&gt; &lt;a href=&quot;\nhttp://ititli.com/6Z&quot; rel=&quot;nofollow&quot; target=&quot;_NEW&quot;&gt;\nhttp://ititli.com/6Z&lt;/a&gt;\n\n----------------------------------------------------------------------------------------------------\n\n\nEncoder Notes: Looking For Early Access To Anything You Can Provide DVDScr, R5, DVDR, BluRay, Direct\nAudio, Music Releases and Seedboxes. If You Got anything to offer please contact us.\n\nSupport us by donating BC - 1FgwdzPsd1y25Gea8wP1qni35uGCtmkRCD\n\nFace book Fan Page","torrent":{"xt":"urn:btih:3bbb1de8a1fd7b7879fa9e1c6b6dd89b16dc2251","amp;dn":"The.Silence.of.the.Lambs.1991.BRRip.480p.x264.AAC-VYTO+%5BP2PDL%5D","amp;tr":["udp%3A%2F%2Ftracker.openbittorrent.com%3A80","udp%3A%2F%2Fopen.demonii.com%3A1337","udp%3A%2F%2Ftracker.coppersurfer.tk%3A6969","udp%3A%2F%2Fexodus.desync.com%3A6969"],"infoHash":"3bbb1de8a1fd7b7879fa9e1c6b6dd89b16dc2251","infoHashBuffer":{"type":"Buffer","data":[59,187,29,232,161,253,123,120,121,250,158,28,107,109,216,155,22,220,34,81]},"announce":[],"urlList":[]}}